<mxfile host="app.diagrams.net" modified="2023-11-25T02:05:06.162Z" agent="Mozilla/5.0 (Windows NT 10.0; Win64; x64) AppleWebKit/537.36 (KHTML, like Gecko) Chrome/119.0.0.0 Safari/537.36" version="22.1.3" etag="6CKe8uRMmieOzQ1M5PDM" type="github">
  <diagram name="第 1 页" id="lvjemA2xEv6mycSAy2Vi">
    <mxGraphModel>
      <root>
        <mxCell id="0" />
        <mxCell id="1" parent="0" />
      </root>
    </mxGraphModel>
  </diagram>
</mxfile>
